#N canvas 591 211 450 300 10;
#X obj 119 28 inlet;
#X obj 119 92 float \$1;
#X obj 119 114 select 0;
#X obj 119 156 float \$2;
#X obj 119 178 select 0;
#X obj 225 241 outlet;
#X text 238 100 from purepd/float_argument;
#X obj 119 50 route bang float symbol;
#X obj 311 243 outlet symbol;
#X connect 0 0 7 0;
#X connect 1 0 2 0;
#X connect 2 0 3 0;
#X connect 2 1 5 0;
#X connect 3 0 4 0;
#X connect 4 1 5 0;
#X connect 7 0 1 0;
#X connect 7 1 5 0;
#X connect 7 2 8 0;
