#N canvas 848 163 980 668 10;
#X obj 60 263 spigot;
#X obj 188 265 spigot;
#X obj 195 148 tgl 15 0 empty empty empty 17 7 0 10 -262144 -1 -1 1
1;
#X obj 195 192 - 1;
#X obj 195 216 abs;
#X obj 60 158 t f f;
#X text 269 199 if the knob is locked \, route to check for unlock
;
#X obj 188 290 t f b;
#X obj 195 119 r \$0-lock;
#X msg 179 94 1;
#X obj 278 109 loadbang;
#X msg 258 141 0;
#X obj 188 361 -;
#X obj 188 388 abs;
#X obj 188 442 sel 1;
#X msg 188 469 0;
#X obj 188 496 s \$0-lock;
#X obj 179 67 bang;
#X obj 220 330 f;
#X obj 60 285 t f f;
#X obj 195 168 t f f;
#X obj 60 541 outlet;
#X obj 60 46 inlet from knob;
#X obj 179 46 inlet lock;
#X text 253 329 snapshot of knob before it was locked or value from
preset;
#X obj 307 70 t f b;
#X obj 307 44 inlet from elsewhere;
#X text 193 556 based on Critter & Guittari's [override];
#X text 195 587 modified by Baptiste Chatel : baptiste.chatel@gmail.com
;
#X obj 188 415 <;
#X obj 479 43 inlet tolerance;
#X connect 0 0 19 0;
#X connect 1 0 7 0;
#X connect 2 0 20 0;
#X connect 3 0 4 0;
#X connect 4 0 0 1;
#X connect 5 0 0 0;
#X connect 5 1 1 0;
#X connect 7 0 12 0;
#X connect 7 1 18 0;
#X connect 8 0 2 0;
#X connect 9 0 2 0;
#X connect 10 0 11 0;
#X connect 11 0 2 0;
#X connect 12 0 13 0;
#X connect 13 0 29 0;
#X connect 14 0 15 0;
#X connect 15 0 16 0;
#X connect 17 0 9 0;
#X connect 18 0 12 1;
#X connect 19 0 21 0;
#X connect 19 1 18 1;
#X connect 20 0 3 0;
#X connect 20 1 1 1;
#X connect 22 0 5 0;
#X connect 23 0 17 0;
#X connect 25 0 18 1;
#X connect 25 1 9 0;
#X connect 26 0 25 0;
#X connect 29 0 14 0;
#X connect 30 0 29 1;
